<svg width="100%" viewBox="0 0 680 400" role="img" xmlns="http://www.w3.org/2000/svg" style="">
  <title style="fill:rgb(0, 0, 0);stroke:none;color:rgb(255, 255, 255);stroke-width:1px;stroke-linecap:butt;stroke-linejoin:miter;opacity:1;font-family:&quot;Anthropic Sans&quot;, -apple-system, BlinkMacSystemFont, &quot;Segoe UI&quot;, sans-serif;font-size:16px;font-weight:400;text-anchor:start;dominant-baseline:auto">Edit icon</title>
  <desc style="fill:rgb(0, 0, 0);stroke:none;color:rgb(255, 255, 255);stroke-width:1px;stroke-linecap:butt;stroke-linejoin:miter;opacity:1;font-family:&quot;Anthropic Sans&quot;, -apple-system, BlinkMacSystemFont, &quot;Segoe UI&quot;, sans-serif;font-size:16px;font-weight:400;text-anchor:start;dominant-baseline:auto">A pencil/edit icon</desc>
  <g transform="translate(290, 120) scale(10)" style="fill:rgb(0, 0, 0);stroke:none;color:rgb(255, 255, 255);stroke-width:1px;stroke-linecap:butt;stroke-linejoin:miter;opacity:1;font-family:&quot;Anthropic Sans&quot;, -apple-system, BlinkMacSystemFont, &quot;Segoe UI&quot;, sans-serif;font-size:16px;font-weight:400;text-anchor:start;dominant-baseline:auto">
    <path fill="var(--color-text-primary)" d="M11.838.714a2.438 2.438 0 0 1 3.448 3.448l-9.841 9.841c-.358.358-.79.633-1.267.806l-3.173 1.146a.75.75 0 0 1-.96-.96l1.146-3.173c.173-.476.448-.909.806-1.267l9.84-9.84zm2.387 1.06a.94.94 0 0 0-1.327 0l-9.84 9.842a1.95 1.95 0 0 0-.456.716L2 14.002l1.669-.604a1.95 1.95 0 0 0 .716-.455l9.841-9.841a.94.94 0 0 0 0-1.327z" style="fill:rgb(250, 249, 245);stroke:none;color:rgb(255, 255, 255);stroke-width:1px;stroke-linecap:butt;stroke-linejoin:miter;opacity:1;font-family:&quot;Anthropic Sans&quot;, -apple-system, BlinkMacSystemFont, &quot;Segoe UI&quot;, sans-serif;font-size:16px;font-weight:400;text-anchor:start;dominant-baseline:auto"/>
  </g>
</svg>