<svg width="100%" viewBox="0 0 680 400" role="img" xmlns="http://www.w3.org/2000/svg" style="">
  <title style="fill:rgb(0, 0, 0);stroke:none;color:rgb(255, 255, 255);stroke-width:1px;stroke-linecap:butt;stroke-linejoin:miter;opacity:1;font-family:&quot;Anthropic Sans&quot;, -apple-system, BlinkMacSystemFont, &quot;Segoe UI&quot;, sans-serif;font-size:16px;font-weight:400;text-anchor:start;dominant-baseline:auto">Logout icon</title>
  <desc style="fill:rgb(0, 0, 0);stroke:none;color:rgb(255, 255, 255);stroke-width:1px;stroke-linecap:butt;stroke-linejoin:miter;opacity:1;font-family:&quot;Anthropic Sans&quot;, -apple-system, BlinkMacSystemFont, &quot;Segoe UI&quot;, sans-serif;font-size:16px;font-weight:400;text-anchor:start;dominant-baseline:auto">A door with an arrow pointing out, representing logout</desc>
  <g transform="translate(297, 133) scale(6.667)" style="fill:rgb(0, 0, 0);stroke:none;color:rgb(255, 255, 255);stroke-width:1px;stroke-linecap:butt;stroke-linejoin:miter;opacity:1;font-family:&quot;Anthropic Sans&quot;, -apple-system, BlinkMacSystemFont, &quot;Segoe UI&quot;, sans-serif;font-size:16px;font-weight:400;text-anchor:start;dominant-baseline:auto">
    <path fill="var(--color-text-primary)" d="M5 3.75A.75.75 0 0 1 5.75 3h7.5a.75.75 0 0 1 0 1.5h-7.5A.25.25 0 0 0 5.5 4.75v14.5c0 .138.112.25.25.25h7.5a.75.75 0 0 1 0 1.5h-7.5A1.75 1.75 0 0 1 4 19.25V4.75A1.75 1.75 0 0 1 5.75 3zM18.78 11.47l-3.5-3.5a.75.75 0 0 0-1.06 1.06l2.22 2.22H9a.75.75 0 0 0 0 1.5h7.44l-2.22 2.22a.75.75 0 1 0 1.06 1.06l3.5-3.5a.75.75 0 0 0 0-1.06z" style="fill:rgb(250, 249, 245);stroke:none;color:rgb(255, 255, 255);stroke-width:1px;stroke-linecap:butt;stroke-linejoin:miter;opacity:1;font-family:&quot;Anthropic Sans&quot;, -apple-system, BlinkMacSystemFont, &quot;Segoe UI&quot;, sans-serif;font-size:16px;font-weight:400;text-anchor:start;dominant-baseline:auto"/>
  </g>
</svg>