<svg width="100%" viewBox="0 0 680 400" role="img" xmlns="http://www.w3.org/2000/svg" style="">
  <title style="fill:rgb(0, 0, 0);stroke:none;color:rgb(255, 255, 255);stroke-width:1px;stroke-linecap:butt;stroke-linejoin:miter;opacity:1;font-family:&quot;Anthropic Sans&quot;, -apple-system, BlinkMacSystemFont, &quot;Segoe UI&quot;, sans-serif;font-size:16px;font-weight:400;text-anchor:start;dominant-baseline:auto">Shuffle icon</title>
  <desc style="fill:rgb(0, 0, 0);stroke:none;color:rgb(255, 255, 255);stroke-width:1px;stroke-linecap:butt;stroke-linejoin:miter;opacity:1;font-family:&quot;Anthropic Sans&quot;, -apple-system, BlinkMacSystemFont, &quot;Segoe UI&quot;, sans-serif;font-size:16px;font-weight:400;text-anchor:start;dominant-baseline:auto">A shuffle/crossover arrows icon</desc>
  <g transform="translate(290, 120) scale(10)" style="fill:rgb(0, 0, 0);stroke:none;color:rgb(255, 255, 255);stroke-width:1px;stroke-linecap:butt;stroke-linejoin:miter;opacity:1;font-family:&quot;Anthropic Sans&quot;, -apple-system, BlinkMacSystemFont, &quot;Segoe UI&quot;, sans-serif;font-size:16px;font-weight:400;text-anchor:start;dominant-baseline:auto">
    <path fill="var(--color-text-primary)" d="M13.151.922a.75.75 0 1 0-1.06 1.06L13.109 3H11.16a3.75 3.75 0 0 0-2.873 1.34l-6.173 7.356A2.25 2.25 0 0 1 .39 12.5H0V14h.391a3.75 3.75 0 0 0 2.873-1.34l6.173-7.356a2.25 2.25 0 0 1 1.724-.804h1.947l-1.017 1.018a.75.75 0 0 0 1.06 1.06L15.98 3.75zM.391 3.5H0V2h.391c1.109 0 2.16.49 2.873 1.34L4.89 5.277l-.979 1.167-1.796-2.14A2.25 2.25 0 0 0 .39 3.5z" style="fill:rgb(250, 249, 245);stroke:none;color:rgb(255, 255, 255);stroke-width:1px;stroke-linecap:butt;stroke-linejoin:miter;opacity:1;font-family:&quot;Anthropic Sans&quot;, -apple-system, BlinkMacSystemFont, &quot;Segoe UI&quot;, sans-serif;font-size:16px;font-weight:400;text-anchor:start;dominant-baseline:auto"/>
    <path fill="var(--color-text-primary)" d="m7.5 10.723.98-1.167.957 1.14a2.25 2.25 0 0 0 1.724.804h1.947l-1.017-1.018a.75.75 0 1 1 1.06-1.06l2.829 2.828-2.829 2.828a.75.75 0 1 1-1.06-1.06L13.109 13H11.16a3.75 3.75 0 0 1-2.873-1.34l-.787-.938z" style="fill:rgb(250, 249, 245);stroke:none;color:rgb(255, 255, 255);stroke-width:1px;stroke-linecap:butt;stroke-linejoin:miter;opacity:1;font-family:&quot;Anthropic Sans&quot;, -apple-system, BlinkMacSystemFont, &quot;Segoe UI&quot;, sans-serif;font-size:16px;font-weight:400;text-anchor:start;dominant-baseline:auto"/>
  </g>
</svg>