<svg width="100%" viewBox="0 0 680 400" role="img" xmlns="http://www.w3.org/2000/svg" style="">
  <title style="fill:rgb(0, 0, 0);stroke:none;color:rgb(255, 255, 255);stroke-width:1px;stroke-linecap:butt;stroke-linejoin:miter;opacity:1;font-family:&quot;Anthropic Sans&quot;, -apple-system, BlinkMacSystemFont, &quot;Segoe UI&quot;, sans-serif;font-size:16px;font-weight:400;text-anchor:start;dominant-baseline:auto">Upload icon</title>
  <desc style="fill:rgb(0, 0, 0);stroke:none;color:rgb(255, 255, 255);stroke-width:1px;stroke-linecap:butt;stroke-linejoin:miter;opacity:1;font-family:&quot;Anthropic Sans&quot;, -apple-system, BlinkMacSystemFont, &quot;Segoe UI&quot;, sans-serif;font-size:16px;font-weight:400;text-anchor:start;dominant-baseline:auto">A unique upload icon with a bracket and rising arrow</desc>
  <g transform="translate(297, 133) scale(6.667)" style="fill:rgb(0, 0, 0);stroke:none;color:rgb(255, 255, 255);stroke-width:1px;stroke-linecap:butt;stroke-linejoin:miter;opacity:1;font-family:&quot;Anthropic Sans&quot;, -apple-system, BlinkMacSystemFont, &quot;Segoe UI&quot;, sans-serif;font-size:16px;font-weight:400;text-anchor:start;dominant-baseline:auto">
    <path fill="var(--color-text-primary)" d="M4 19.75A.75.75 0 0 1 4.75 19h14.5a.75.75 0 0 1 0 1.5H4.75A.75.75 0 0 1 4 19.75zM4.75 15a.75.75 0 0 0 0 1.5h2a.75.75 0 0 0 0-1.5h-2zM4 11.75A.75.75 0 0 1 4.75 11h2a.75.75 0 0 1 0 1.5h-2A.75.75 0 0 1 4 11.75zM17.25 15a.75.75 0 0 0 0 1.5h2a.75.75 0 0 0 0-1.5h-2zM17.25 11a.75.75 0 0 0 0 1.5h2a.75.75 0 0 0 0-1.5h-2zM11.47 3.22a.75.75 0 0 1 1.06 0l3.5 3.5a.75.75 0 1 1-1.06 1.06L12.75 5.56v7.69a.75.75 0 0 1-1.5 0V5.56L9.03 7.78a.75.75 0 0 1-1.06-1.06l3.5-3.5z" style="fill:rgb(250, 249, 245);stroke:none;color:rgb(255, 255, 255);stroke-width:1px;stroke-linecap:butt;stroke-linejoin:miter;opacity:1;font-family:&quot;Anthropic Sans&quot;, -apple-system, BlinkMacSystemFont, &quot;Segoe UI&quot;, sans-serif;font-size:16px;font-weight:400;text-anchor:start;dominant-baseline:auto"/>
  </g>
</svg>